<svg version="1.1" xmlns="http://www.w3.org/2000/svg" xmlns:xlink="http://www.w3.org/1999/xlink" width="45" height="45" viewBox="0,0,45,45"><defs><radialGradient cx="247.2275" cy="170.6396" r="38.5299" gradientUnits="userSpaceOnUse" id="color-1"><stop offset="0" stop-color="#ffff99"/><stop offset="1" stop-color="#ff9400"/></radialGradient></defs><g transform="translate(-217.5,-157.5)"><g data-paper-data="{&quot;isPaintingLayer&quot;:true}" fill-rule="nonzero" stroke-linejoin="miter" stroke-miterlimit="10" stroke-dasharray="" stroke-dashoffset="0" style="mix-blend-mode: normal"><path d="M217.5,180c0,-12.42641 10.07359,-22.5 22.5,-22.5c12.42641,0 22.5,10.07359 22.5,22.5c0,12.42641 -10.07359,22.5 -22.5,22.5c-12.42641,0 -22.5,-10.07359 -22.5,-22.5z" fill="url(#color-1)" stroke="none" stroke-width="1" stroke-linecap="butt"/><path d="M223.14376,180.15686l33.71249,-0.31372" fill="none" stroke="#000000" stroke-width="2" stroke-linecap="round"/><path d="M241.64521,172.25449c0,0.55807 -0.42225,1.01048 -0.94311,1.01048c-0.52087,0 -0.94311,-0.45241 -0.94311,-1.01048c0,-0.55807 0.42225,-1.01048 0.94311,-1.01048c0.52087,0 0.94311,0.45241 0.94311,1.01048z" fill="none" stroke="#000000" stroke-width="2" stroke-linecap="butt"/><path d="M241.39072,187.35928c0,0.55807 -0.42225,1.01048 -0.94311,1.01048c-0.52086,0 -0.94312,-0.45241 -0.94312,-1.01048c0,-0.55807 0.42225,-1.01048 0.94312,-1.01048c0.52086,0 0.94311,0.45241 0.94311,1.01048z" fill="none" stroke="#000000" stroke-width="2" stroke-linecap="butt"/></g></g></svg>